HIERARCHY
ROOT Hips
{
  OFFSET 0 0 0
  CHANNELS 6 Xposition Yposition Zposition Zrotation Xrotation Yrotation
  JOINT Spine
  {
    OFFSET 0 10 0
    CHANNELS 3 Zrotation Xrotation Yrotation
    JOINT Neck
    {
      OFFSET 0 30 0
      CHANNELS 3 Zrotation Xrotation Yrotation
      JOINT Head
      {
        OFFSET 0 8 0
        CHANNELS 3 Zrotation Xrotation Yrotation
        End Site
        {
          OFFSET 0 10 0
        }
      }
    }
    JOINT LeftArm
    {
      OFFSET 15 30 0
      CHANNELS 3 Zrotation Xrotation Yrotation
      JOINT LeftForeArm
      {
        OFFSET 25 0 0
        CHANNELS 3 Zrotation Xrotation Yrotation
        JOINT LeftHand
        {
          OFFSET 25 0 0
          CHANNELS 3 Zrotation Xrotation Yrotation
          End Site
          {
            OFFSET 10 0 0
          }
        }
      }
    }
    JOINT RightArm
    {
      OFFSET -15 30 0
      CHANNELS 3 Zrotation Xrotation Yrotation
      JOINT RightForeArm
      {
        OFFSET -25 0 0
        CHANNELS 3 Zrotation Xrotation Yrotation
        JOINT RightHand
        {
          OFFSET -25 0 0
          CHANNELS 3 Zrotation Xrotation Yrotation
          End Site
          {
            OFFSET -10 0 0
          }
        }
      }
    }
  }
  JOINT LeftUpLeg
  {
    OFFSET 10 -10 0
    CHANNELS 3 Zrotation Xrotation Yrotation
    JOINT LeftLeg
    {
      OFFSET 0 -35 0
      CHANNELS 3 Zrotation Xrotation Yrotation
      JOINT LeftFoot
      {
        OFFSET 0 -40 0
        CHANNELS 3 Zrotation Xrotation Yrotation
        End Site
        {
          OFFSET 0 0 15
        }
      }
    }
  }
  JOINT RightUpLeg
  {
    OFFSET -10 -10 0
    CHANNELS 3 Zrotation Xrotation Yrotation
    JOINT RightLeg
    {
      OFFSET 0 -35 0
      CHANNELS 3 Zrotation Xrotation Yrotation
      JOINT RightFoot
      {
        OFFSET 0 -40 0
        CHANNELS 3 Zrotation Xrotation Yrotation
        End Site
        {
          OFFSET 0 0 15
        }
      }
    }
  }
}
MOTION
Frames:	22
Frame Time:	0.00833333
-32.5375 83.9166 -135.659 11.7066 -13.6168 -132.49 0.553254 -19.8709 3.91053 14.4508 2.50719 15.4287 -24.1874 8.93111 26.4092 -37.896 55.639 -30.3042 24.9609 -10.9841 -46.9654 3.00836e-05 -64.2834 3.33909e-05 54.4265 37.1987 18.3277 -24.7793 -10.7954 46.5475 -5.39676e-06 -33.3681 -1.44575e-05 -7.44748 -32.6877 -31.5316 0.203713 33.8083 -0.66974 -0.218815 -1.07722 -17.2091 -2.038 -42.9004 39.9226 -0.282201 39.1171 0.808948 0.925711 -2.70967 32.6973 
-32.3785 83.8648 -136.044 11.983 -13.2068 -131.152 0.802972 -19.9229 4.09576 14.5191 3.14535 15.7522 -24.3842 8.30716 26.9814 -37.673 55.8244 -30.6579 24.9238 -10.9452 -46.8801 3.0102e-05 -64.2971 3.34075e-05 54.6001 37.0885 18.0461 -24.7286 -10.7428 46.4317 -5.35757e-06 -33.2382 -1.44359e-05 -7.20397 -32.7401 -32.1825 0.205417 33.9309 -0.672879 -0.28159 -1.32643 -17.567 -2.34391 -42.2338 38.2644 -0.286639 38.9932 0.807016 1.28763 -3.86841 32.0085 
-32.2076 83.8264 -136.429 12.2619 -12.7911 -129.827 1.03895 -19.9831 4.25109 14.6245 3.81062 16.082 -24.5987 7.66879 27.5859 -37.4716 55.9936 -30.9203 24.9047 -10.9258 -46.8354 3.01369e-05 -64.323 3.34389e-05 54.7813 37.0062 17.7954 -24.6769 -10.6894 46.3136 -5.31859e-06 -33.1086 -1.44146e-05 -6.91543 -32.7876 -32.8051 0.206128 33.9848 -0.674271 -0.339404 -1.54162 -17.9162 -2.52991 -41.5353 36.7012 -0.290719 38.8551 0.804836 1.59863 -5.03333 31.1033 
-32.0251 83.8062 -136.812 12.5334 -12.3819 -128.532 1.2633 -20.0388 4.43254 14.7279 4.44553 16.4122 -24.799 7.06607 28.1877 -37.2495 56.1477 -31.1735 24.8964 -10.9174 -46.8158 3.01876e-05 -64.3606 3.34846e-05 54.9714 36.8951 17.5568 -24.6221 -10.6332 46.1887 -5.27779e-06 -32.9726 -1.43924e-05 -6.59347 -32.8237 -33.3945 0.205629 33.9543 -0.673508 -0.385829 -1.69949 -18.2546 -2.55165 -40.829 35.4634 -0.291987 38.7369 0.802616 1.80667 -6.08619 29.9527 
-31.8317 83.8096 -137.193 12.7899 -11.9788 -127.264 1.47184 -20.0861 4.64537 14.8423 5.05875 16.7429 -25.0004 6.50124 28.7913 -36.9773 56.2968 -31.4293 24.9041 -10.9255 -46.8335 3.0276e-05 -64.4259 3.35643e-05 55.1558 36.7552 17.3348 -24.5609 -10.5708 46.0494 -5.23751e-06 -32.8379 -1.43705e-05 -6.23143 -32.8272 -33.9522 0.203371 33.809 -0.669819 -0.417563 -1.79037 -18.5931 -2.44933 -40.119 34.5375 -0.287911 38.6139 0.799364 1.90375 -7.04696 28.4687 
-31.627 83.8327 -137.573 13.039 -11.5774 -126.017 1.66503 -20.1319 4.86293 14.9806 5.67281 17.0769 -25.212 5.95154 29.4108 -36.6852 56.4376 -31.6459 24.9293 -10.952 -46.8913 3.03954e-05 -64.5136 3.36722e-05 55.3391 36.6121 17.1361 -24.4951 -10.5041 45.9002 -5.19787e-06 -32.7049 -1.4349e-05 -5.825 -32.8094 -34.4793 0.199677 33.5658 -0.663675 -0.436844 -1.82837 -18.9287 -2.24992 -39.4122 33.8133 -0.280438 38.4792 0.795327 1.89825 -7.963 26.6859 
-31.4096 83.8662 -137.952 13.2949 -11.1835 -124.799 1.85209 -20.1796 5.09342 15.1057 6.25155 17.411 -25.3966 5.42795 30.0246 -36.4188 56.5504 -31.8261 24.959 -10.9832 -46.9596 3.05028e-05 -64.592 3.37691e-05 55.5497 36.4465 16.9465 -24.4308 -10.4391 45.7549 -5.15359e-06 -32.5559 -1.43252e-05 -5.39032 -32.8124 -34.9708 0.195639 33.2808 -0.656528 -0.445322 -1.82601 -19.2388 -1.90949 -38.752 33.3625 -0.273793 38.3933 0.792539 1.7849 -8.74445 24.7555 
-31.1779 83.9009 -138.331 13.572 -10.8022 -123.618 2.04234 -20.2325 5.34508 15.1816 6.75914 17.7415 -25.5183 4.94086 30.6111 -36.2242 56.6153 -31.9724 24.9803 -11.0055 -47.0086 3.05537e-05 -64.629 3.3815e-05 55.8158 36.2392 16.7521 -24.374 -10.3817 45.6271 -5.09949e-06 -32.3731 -1.42961e-05 -4.94507 -32.8778 -35.4229 0.192293 33.01 -0.649788 -0.444993 -1.79571 -19.5009 -1.38834 -38.1816 33.2529 -0.272179 38.4166 0.793017 1.57958 -9.29466 22.8306 
-30.9281 83.9373 -138.712 13.879 -10.4245 -122.481 2.24831 -20.2846 5.61934 15.1916 7.17177 18.0717 -25.5522 4.51014 31.1795 -36.1089 56.6196 -32.0897 24.99 -11.0158 -47.0312 3.05382e-05 -64.6178 3.38011e-05 56.1479 35.9753 16.5641 -24.3215 -10.3289 45.5088 -5.02652e-06 -32.1254 -1.42572e-05 -4.47327 -33.0131 -35.8308 0.19027 32.7569 -0.643543 -0.435567 -1.73842 -19.7081 -0.626319 -37.7135 33.6118 -0.278482 38.5914 0.798083 1.29514 -9.5251 20.9075 
-30.6622 83.9794 -139.093 14.2077 -10.0521 -121.382 2.4618 -20.3363 5.91209 15.1595 7.51388 18.401 -25.5253 4.12335 31.7358 -36.0511 56.5768 -32.1742 24.9951 -11.0211 -47.0429 3.04792e-05 -64.5748 3.37478e-05 56.5294 35.6683 16.3855 -24.2717 -10.2791 45.3966 -4.94032e-06 -31.8311 -1.42115e-05 -3.97392 -33.1979 -36.1994 0.188909 32.4954 -0.637143 -0.415662 -1.64855 -19.8727 0.319154 -37.3262 34.3499 -0.289949 38.8768 0.80646 0.961735 -9.48725 18.9215 
-30.3874 84.0231 -139.472 14.5488 -9.70478 -120.309 2.66139 -20.4004 6.22341 15.1099 7.82208 18.72 -25.4796 3.74242 32.254 -36.0529 56.5057 -32.2151 24.9973 -11.0235 -47.0482 3.03812e-05 -64.5032 3.36593e-05 56.9467 35.3411 16.1908 -24.2336 -10.2411 45.3108 -4.8575e-06 -31.5466 -1.4168e-05 -3.48807 -33.4313 -36.5399 0.187251 32.237 -0.630851 -0.386037 -1.52856 -20.001 1.31881 -37.0103 35.2144 -0.302303 39.2083 0.816257 0.623916 -9.29866 16.9352 
-30.1109 84.0644 -139.846 14.8941 -9.39958 -119.25 2.82593 -20.4896 6.55345 15.0667 8.13282 19.0197 -25.4564 3.32984 32.7088 -36.1157 56.4255 -32.2023 24.9988 -11.0251 -47.0516 3.02489e-05 -64.4059 3.35399e-05 57.3858 35.0164 15.9547 -24.2162 -10.2238 45.2718 -4.79429e-06 -31.3282 -1.4135e-05 -3.05686 -33.7121 -36.8634 0.184323 31.9933 -0.62492 -0.347547 -1.38086 -20.0995 2.24908 -36.7628 35.9593 -0.311175 39.5213 0.825506 0.308226 -9.08534 15.0086 
-29.8327 84.0988 -140.216 15.2623 -9.12537 -118.23 2.97386 -20.6237 6.93433 15.0454 8.47509 19.3007 -25.4842 2.86209 33.0906 -36.2716 56.3362 -32.1164 24.9961 -11.0223 -47.0455 3.00743e-05 -64.2765 3.33825e-05 57.8592 34.6932 15.6589 -24.2236 -10.231 45.2886 -4.75722e-06 -31.1997 -1.41158e-05 -2.68081 -34.0688 -37.1871 0.179242 31.8058 -0.620331 -0.304473 -1.22325 -20.1289 3.14722 -36.6066 36.6003 -0.314867 39.8186 0.834214 0.00599699 -8.8398 13.0902 
-29.5497 84.1296 -140.583 15.6535 -8.87546 -117.246 3.10994 -20.7899 7.35583 15.0306 8.8232 19.5669 -25.5363 2.36335 33.4148 -36.5083 56.2291 -31.9693 24.9895 -11.0153 -47.0304 2.98597e-05 -64.1157 3.31893e-05 58.3673 34.3609 15.3218 -24.2504 -10.2576 45.3491 -4.7366e-06 -31.128 -1.41051e-05 -2.34321 -34.4925 -37.503 0.172702 31.6556 -0.616621 -0.255586 -1.04853 -20.0995 4.06179 -36.5336 37.2446 -0.315909 40.1279 0.843271 -0.278717 -8.50726 11.1729 
-29.2641 84.1643 -140.943 16.0341 -8.66788 -116.248 3.19153 -20.9526 7.75426 15.0004 9.13171 19.8137 -25.5713 1.86749 33.6936 -36.7609 56.1101 -31.7972 24.9863 -11.0119 -47.023 2.96249e-05 -63.9376 3.29783e-05 58.8783 34.0282 14.9722 -24.2918 -10.2989 45.4421 -4.72416e-06 -31.0847 -1.40987e-05 -2.05758 -34.9266 -37.7824 0.16613 31.4632 -0.611899 -0.19286 -0.821828 -20.0922 4.88646 -36.5032 37.7865 -0.316158 40.4224 0.851943 -0.523296 -8.15224 9.37953 
-28.9785 84.2104 -141.291 16.3713 -8.51531 -115.187 3.17411 -21.077 8.06523 14.9339 9.35549 20.0357 -25.548 1.4081 33.938 -36.9649 55.9852 -31.6359 24.9938 -11.0198 -47.0401 2.93888e-05 -63.7562 3.27663e-05 59.3618 33.704 14.6382 -24.3428 -10.3503 45.5566 -4.71168e-06 -31.0413 -1.40923e-05 -1.83491 -35.3155 -37.9941 0.161021 31.149 -0.60432 -0.106968 -0.50875 -20.1878 5.51238 -36.4786 38.1191 -0.317435 40.6752 0.859456 -0.716872 -7.84348 7.83062 
-28.6917 84.2706 -141.63 16.6566 -8.41794 -114.064 3.00761 -21.1569 8.27254 14.8205 9.47324 20.2375 -25.4239 0.985574 34.152 -37.096 55.8523 -31.485 25.015 -11.0422 -47.0888 2.91256e-05 -63.5512 3.25305e-05 59.8309 33.3896 14.3172 -24.4058 -10.414 45.6984 -4.69439e-06 -30.981 -1.40834e-05 -1.6807 -35.6475 -38.1116 0.159187 30.6742 -0.593107 0.0080413 -0.0973823 -20.4543 5.90178 -36.4581 38.235 -0.320394 40.8885 0.865824 -0.864421 -7.60022 6.56761 
-28.403 84.3408 -141.962 16.9129 -8.35414 -112.902 2.72706 -21.2105 8.40969 14.6749 9.51283 20.4193 -25.2334 0.58357 34.3289 -37.1905 55.7093 -31.3291 25.0456 -11.0744 -47.1593 2.88372e-05 -63.3231 3.22725e-05 60.295 33.0806 13.9972 -24.4819 -10.4909 45.8705 -4.67753e-06 -30.9222 -1.40747e-05 -1.58496 -35.9528 -38.1551 0.159575 30.087 -0.57949 0.150894 0.391202 -20.8341 6.11596 -36.4612 38.185 -0.323959 41.0734 0.871344 -0.979645 -7.39201 5.52143 
-28.1155 84.4177 -142.279 17.155 -8.2991 -111.686 2.41475 -21.24 8.48651 14.5143 9.50292 20.569 -25.0512 0.210339 34.4632 -37.2762 55.5629 -31.1807 25.0818 -11.1127 -47.2429 2.85808e-05 -63.1174 3.20436e-05 60.7195 32.7781 13.6921 -24.5643 -10.5745 46.0578 -4.66791e-06 -30.8886 -1.40698e-05 -1.53487 -36.2387 -38.1621 0.159403 29.4388 -0.564646 0.319454 0.942111 -21.2198 6.19328 -36.4831 37.9494 -0.327316 41.2168 0.875642 -1.07086 -7.21412 4.64611 
-27.8322 84.4982 -142.574 17.3968 -8.22783 -110.404 2.1532 -21.2476 8.51293 14.3552 9.47203 20.675 -24.952 -0.125955 34.5493 -37.3812 55.4194 -31.0516 25.1199 -11.1531 -47.3308 2.84108e-05 -62.9792 3.1892e-05 61.0702 32.4835 13.4156 -24.6466 -10.6586 46.2449 -4.67235e-06 -30.9041 -1.4072e-05 -1.51865 -36.5122 -38.1711 0.155783 28.7808 -0.54968 0.507389 1.54206 -21.504 6.17214 -36.5175 37.5079 -0.329648 41.3053 0.878343 -1.14468 -7.0609 3.89592 
-27.5539 84.5848 -142.845 17.6332 -8.14014 -109.035 1.92353 -21.2214 8.47466 14.209 9.41405 20.7299 -24.9773 -0.428248 34.5761 -37.49 55.2771 -30.9641 25.1608 -11.1968 -47.4252 2.83473e-05 -62.9273 3.18355e-05 61.3496 32.1791 13.1646 -24.7309 -10.7456 46.4365 -4.69801e-06 -30.9936 -1.40852e-05 -1.55749 -36.758 -38.2207 0.146443 28.0797 -0.53378 0.718591 2.21171 -21.6987 6.00646 -36.5635 36.8008 -0.331055 41.3411 0.879545 -1.20244 -6.95189 3.30146 
-27.2791 84.6781 -143.095 17.8623 -8.02339 -107.597 1.69542 -21.1645 8.37208 14.0647 9.31847 20.7415 -25.0818 -0.7004 34.5493 -37.5959 55.1337 -30.905 25.2057 -11.2449 -47.5293 2.8357e-05 -62.9353 3.18442e-05 61.5727 31.8705 12.9337 -24.8191 -10.8372 46.638 -4.73956e-06 -31.1383 -1.41067e-05 -1.64954 -36.9779 -38.2804 0.133573 27.3238 -0.516817 0.953095 2.95067 -21.8492 5.69529 -36.616 35.8552 -0.33184 41.3295 0.879362 -1.24527 -6.88482 2.87225 
